<svg aria-hidden="true" style="position: absolute; width: 0; height: 0; overflow: hidden;" version="1.1" xmlns="http://www.w3.org/2000/svg" xmlns:xlink="http://www.w3.org/1999/xlink">
<defs>
<symbol id="icon-craftwork" viewBox="0 0 32 32">
<path fill="#85aa9f" style="fill: var(--color1, #85aa9f)" d="M32 16c0 8.837-7.163 16-16 16s-16-7.163-16-16c0-8.837 7.163-16 16-16s16 7.163 16 16z"></path>
<path fill="#fcfcfc" style="fill: var(--color2, #fcfcfc)" d="M16.354 15.2c4.755-3.586 4.965-5.76 0-9.6-5.060 3.922-4.408 6.001 0 9.6zM15.2 16.446c-3.586-4.755-5.76-4.965-9.6 0 3.922 5.060 6.001 4.408 9.6 0zM27.2 16.446c-3.586-4.755-5.76-4.965-9.6 0 3.922 5.060 6.001 4.408 9.6 0zM16.354 27.2c4.755-3.586 4.965-5.76 0-9.6-5.060 3.922-4.408 6.001 0 9.6z"></path>
</symbol>
<symbol id="icon-eye-off" viewBox="0 0 32 32">
<path stroke-linejoin="round" stroke-linecap="round" stroke-miterlimit="4" stroke-width="3.2" d="M23.921 23.92c-2.279 1.737-5.055 2.7-7.92 2.747-9.333 0-14.667-10.667-14.667-10.667 1.659-3.091 3.959-5.791 6.747-7.92M13.201 5.653c0.918-0.215 1.857-0.322 2.8-0.32 9.333 0 14.667 10.667 14.667 10.667-0.809 1.514-1.775 2.94-2.88 4.253M18.828 18.827c-0.366 0.393-0.808 0.708-1.298 0.927s-1.020 0.336-1.557 0.346c-0.537 0.009-1.071-0.089-1.569-0.291s-0.95-0.501-1.33-0.88c-0.38-0.38-0.679-0.832-0.88-1.33s-0.3-1.032-0.29-1.569c0.009-0.537 0.127-1.067 0.346-1.558s0.534-0.932 0.927-1.298"></path>
<path stroke-linejoin="round" stroke-linecap="round" stroke-miterlimit="4" stroke-width="3.2" d="M1.334 1.333l29.333 29.333"></path>
</symbol>
<symbol id="icon-eye" viewBox="0 0 32 32">
<path stroke-linejoin="round" stroke-linecap="round" stroke-miterlimit="4" stroke-width="3.2" d="M1.333 16c0 0 5.333-10.667 14.667-10.667s14.667 10.667 14.667 10.667-5.333 10.667-14.667 10.667c-9.333 0-14.667-10.667-14.667-10.667z"></path>
<path stroke-linejoin="round" stroke-linecap="round" stroke-miterlimit="4" stroke-width="3.2" d="M16 20c2.209 0 4-1.791 4-4s-1.791-4-4-4c-2.209 0-4 1.791-4 4s1.791 4 4 4z"></path>
</symbol>
<symbol id="icon-arrow-right" viewBox="0 0 32 32">
<path stroke-linejoin="round" stroke-linecap="round" stroke-miterlimit="4" stroke-width="3.2" d="M1.867 16h25.6"></path>
<path stroke-linejoin="round" stroke-linecap="round" stroke-miterlimit="4" stroke-width="3.2" d="M19.2 6.667l9.333 9.333-9.333 9.333"></path>
</symbol>
<symbol id="icon-nav" viewBox="0 0 47 32">
<path stroke-linejoin="miter" stroke-linecap="round" stroke-miterlimit="4" stroke-width="2.9091" d="M8.537 5.333h36.553"></path>
<path stroke-linejoin="miter" stroke-linecap="round" stroke-miterlimit="4" stroke-width="2.9091" d="M8.537 24.727h36.553"></path>
<path stroke-linejoin="miter" stroke-linecap="round" stroke-miterlimit="4" stroke-width="2.9091" d="M19.668 15.030h25.423"></path>
</symbol>
<symbol id="icon-user" viewBox="0 0 32 32">
<path fill="#85aa9f" style="fill: var(--color1, #85aa9f)" d="M16 0c8.837 0 16 7.163 16 16s-7.163 16-16 16c-8.837 0-16-7.163-16-16s7.163-16 16-16z"></path>
</symbol>
<symbol id="icon-close" viewBox="0 0 32 32">
<path fill="none" stroke="#fcfcfc" style="stroke: var(--color1, #fcfcfc)" stroke-linejoin="round" stroke-linecap="round" stroke-miterlimit="4" stroke-width="3" d="M24 8l-16 16"></path>
<path fill="none" stroke="#fcfcfc" style="stroke: var(--color1, #fcfcfc)" stroke-linejoin="round" stroke-linecap="round" stroke-miterlimit="4" stroke-width="3" d="M8 8l16 16"></path>
</symbol>
<symbol id="icon-user-menu" viewBox="0 0 32 32">
<path fill="#FCFCFC" style="fill: var(--color1, #FCFCFC)" d="M16 0c8.837 0 16 7.163 16 16s-7.163 16-16 16c-8.837 0-16-7.163-16-16s7.163-16 16-16z"></path>
</symbol>
<symbol id="icon-trash" viewBox="0 0 32 32">
<path fill="none" stroke="#85aa9f" style="stroke: var(--color1, #85aa9f)" stroke-linejoin="round" stroke-linecap="round" stroke-miterlimit="4" stroke-width="2.4471" d="M4.706 8.471h22.588"></path>
<path fill="none" stroke="#85aa9f" style="stroke: var(--color1, #85aa9f)" stroke-linejoin="round" stroke-linecap="round" stroke-miterlimit="4" stroke-width="2.4471" d="M24.785 8.471v17.569c0 0.666-0.264 1.304-0.735 1.775s-1.109 0.735-1.775 0.735h-12.549c-0.666 0-1.304-0.264-1.775-0.735s-0.735-1.109-0.735-1.775v-17.569M10.982 8.471v-2.51c0-0.666 0.264-1.304 0.735-1.775s1.109-0.735 1.775-0.735h5.020c0.666 0 1.304 0.264 1.775 0.735s0.735 1.109 0.735 1.775v2.51"></path>
<path fill="none" stroke="#85aa9f" style="stroke: var(--color1, #85aa9f)" stroke-linejoin="round" stroke-linecap="round" stroke-miterlimit="4" stroke-width="2.4471" d="M13.489 14.745v7.529"></path>
<path fill="none" stroke="#85aa9f" style="stroke: var(--color1, #85aa9f)" stroke-linejoin="round" stroke-linecap="round" stroke-miterlimit="4" stroke-width="2.4471" d="M18.511 14.745v7.529"></path>
</symbol>
<symbol id="icon-edit" viewBox="0 0 32 32">
<path fill="none" stroke="#85aa9f" style="stroke: var(--color1, #85aa9f)" stroke-linejoin="round" stroke-linecap="round" stroke-miterlimit="4" stroke-width="2.4471" d="M22.276 4.706c0.33-0.33 0.721-0.591 1.151-0.769s0.892-0.27 1.358-0.27c0.466 0 0.928 0.092 1.358 0.27s0.822 0.44 1.152 0.769c0.329 0.33 0.591 0.721 0.769 1.152s0.27 0.892 0.27 1.358c0 0.466-0.092 0.928-0.27 1.358s-0.44 0.822-0.769 1.152l-16.941 16.941-6.902 1.882 1.882-6.902 16.941-16.941z"></path>
</symbol>
<symbol id="icon-arrow-right-green" viewBox="0 0 32 32">
<path fill="none" stroke="#85aa9f" style="stroke: var(--color1, #85aa9f)" stroke-linejoin="round" stroke-linecap="round" stroke-miterlimit="4" stroke-width="2.4" d="M5.331 16h21.333M26.665 16l-5.333-5.333M26.665 16l-5.333 5.333"></path>
</symbol>
<symbol id="icon-plus" viewBox="0 0 32 32">
<path fill="none" stroke="#85aa9f" style="stroke: var(--color1, #85aa9f)" stroke-linejoin="round" stroke-linecap="round" stroke-miterlimit="4" stroke-width="2.4" d="M16 6.667v18.667"></path>
<path fill="none" stroke="#85aa9f" style="stroke: var(--color1, #85aa9f)" stroke-linejoin="round" stroke-linecap="round" stroke-miterlimit="4" stroke-width="2.4" d="M6.669 16h18.667"></path>
</symbol>
<symbol id="icon-search" viewBox="0 0 32 32">
<path stroke-linejoin="round" stroke-linecap="round" stroke-miterlimit="4" stroke-width="2.4" d="M14.667 25.333c5.891 0 10.667-4.776 10.667-10.667s-4.776-10.667-10.667-10.667c-5.891 0-10.667 4.776-10.667 10.667s4.776 10.667 10.667 10.667z"></path>
<path stroke-linejoin="round" stroke-linecap="round" stroke-miterlimit="4" stroke-width="2.4" d="M28 28l-5.8-5.8"></path>
</symbol>
<symbol id="icon-next" viewBox="0 0 32 32">
<path d="M13.88 8l-1.88 1.88 6.107 6.12-6.107 6.12 1.88 1.88 8-8-8-8z"></path>
</symbol>
<symbol id="icon-prev" viewBox="0 0 32 32">
<path d="M20.12 24l1.88-1.88-6.107-6.12 6.107-6.12-1.88-1.88-8 8 8 8z"></path>
</symbol>
<symbol id="icon-progress-full" viewBox="0 0 33 32">
<path fill="#d4f8d3" style="fill: var(--color1, #d4f8d3)" d="M32.641 16c0 8.823-7.153 15.976-15.976 15.976s-15.976-7.153-15.976-15.976c0-8.823 7.152-15.976 15.976-15.976s15.976 7.152 15.976 15.976zM5.483 16c0 6.176 5.007 11.183 11.183 11.183s11.183-5.007 11.183-11.183-5.007-11.183-11.183-11.183c-6.176 0-11.183 5.007-11.183 11.183z"></path>
<path fill="#2bd627" style="fill: var(--color2, #2bd627)" d="M16.64 0.024c8.823-0.013 15.987 7.128 16 15.951s-7.128 15.987-15.951 16c-8.823 0.013-15.986-7.128-16-15.951s7.128-15.986 15.951-16zM16.682 27.183c6.176-0.009 11.175-5.024 11.166-11.2s-5.024-11.175-11.2-11.166c-6.176 0.009-11.175 5.024-11.166 11.2s5.024 11.175 11.2 11.166z"></path>
</symbol>
<symbol id="icon-progress" viewBox="0 0 33 32">
<path fill="#d4f8d3" style="fill: var(--color1, #d4f8d3)" d="M32.641 16c0 8.823-7.153 15.976-15.976 15.976s-15.976-7.153-15.976-15.976c0-8.823 7.152-15.976 15.976-15.976s15.976 7.152 15.976 15.976zM5.483 16c0 6.176 5.007 11.183 11.183 11.183s11.183-5.007 11.183-11.183-5.007-11.183-11.183-11.183c-6.176 0-11.183 5.007-11.183 11.183z"></path>
<path fill="#2bd627" style="fill: var(--color2, #2bd627)" d="M16.644 2.421c-0.002-1.323 1.075-2.416 2.384-2.221 3.354 0.502 6.485 2.062 8.916 4.486 3.001 2.991 4.69 7.052 4.696 11.289s-1.67 8.303-4.662 11.304c-2.424 2.431-5.549 4.001-8.902 4.513-1.308 0.2-2.389-0.89-2.391-2.213s1.081-2.372 2.374-2.656c2.078-0.456 4-1.498 5.525-3.028 2.094-2.1 3.268-4.947 3.263-7.913s-1.187-5.809-3.287-7.902c-1.53-1.525-3.455-2.562-5.534-3.011-1.294-0.279-2.38-1.325-2.382-2.648z"></path>
</symbol>
<symbol id="icon-united-kingdom" viewBox="0 0 32 32">
<path fill="#f0f0f0" style="fill: var(--color1, #f0f0f0)" d="M16 32c8.837 0 16-7.163 16-16s-7.163-16-16-16c-8.837 0-16 7.163-16 16s7.163 16 16 16z"></path>
<path fill="#0052b4" style="fill: var(--color2, #0052b4)" d="M3.308 6.259c-1.257 1.635-2.204 3.52-2.756 5.567h8.324l-5.567-5.567z"></path>
<path fill="#0052b4" style="fill: var(--color2, #0052b4)" d="M31.448 11.826c-0.552-2.047-1.5-3.932-2.756-5.567l-5.567 5.567h8.323z"></path>
<path fill="#0052b4" style="fill: var(--color2, #0052b4)" d="M0.551 20.174c0.552 2.047 1.5 3.932 2.756 5.567l5.567-5.567h-8.323z"></path>
<path fill="#0052b4" style="fill: var(--color2, #0052b4)" d="M25.741 3.308c-1.635-1.257-3.52-2.204-5.567-2.756v8.324l5.567-5.567z"></path>
<path fill="#0052b4" style="fill: var(--color2, #0052b4)" d="M6.259 28.692c1.635 1.257 3.52 2.205 5.567 2.756v-8.323l-5.567 5.567z"></path>
<path fill="#0052b4" style="fill: var(--color2, #0052b4)" d="M11.826 0.551c-2.047 0.552-3.932 1.5-5.567 2.756l5.567 5.567v-8.323z"></path>
<path fill="#0052b4" style="fill: var(--color2, #0052b4)" d="M20.174 31.449c2.047-0.552 3.932-1.5 5.567-2.756l-5.567-5.567v8.323z"></path>
<path fill="#0052b4" style="fill: var(--color2, #0052b4)" d="M23.125 20.174l5.567 5.567c1.257-1.635 2.204-3.52 2.756-5.567h-8.323z"></path>
<path fill="#d80027" style="fill: var(--color3, #d80027)" d="M31.865 13.913h-13.778v-13.778c-0.683-0.089-1.38-0.135-2.087-0.135s-1.404 0.046-2.087 0.135v13.778h-13.778c-0.089 0.683-0.135 1.38-0.135 2.087s0.046 1.404 0.135 2.087h13.778v13.778c0.683 0.089 1.38 0.135 2.087 0.135s1.404-0.046 2.087-0.135v-13.778h13.778c0.089-0.683 0.135-1.38 0.135-2.087s-0.047-1.404-0.135-2.087v0z"></path>
<path fill="#d80027" style="fill: var(--color3, #d80027)" d="M20.174 20.174l7.14 7.14c0.328-0.328 0.642-0.672 0.941-1.027l-6.113-6.113-1.968 0z"></path>
<path fill="#d80027" style="fill: var(--color3, #d80027)" d="M11.825 20.174h-0l-7.14 7.14c0.328 0.328 0.671 0.642 1.027 0.941l6.113-6.113v-1.967z"></path>
<path fill="#d80027" style="fill: var(--color3, #d80027)" d="M11.826 11.826v-0l-7.14-7.14c-0.328 0.328-0.642 0.671-0.941 1.027l6.113 6.113h1.968z"></path>
<path fill="#d80027" style="fill: var(--color3, #d80027)" d="M20.174 11.826l7.14-7.14c-0.328-0.328-0.671-0.642-1.027-0.94l-6.113 6.113v1.968z"></path>
</symbol>
<symbol id="icon-ukraine" viewBox="0 0 32 32">
<path fill="#ffda44" style="fill: var(--color4, #ffda44)" d="M16 32c8.837 0 16-7.163 16-16s-7.163-16-16-16c-8.837 0-16 7.163-16 16s7.163 16 16 16z"></path>
<path fill="#338af3" style="fill: var(--color5, #338af3)" d="M0 16c0-8.836 7.163-16 16-16s16 7.163 16 16z"></path>
</symbol>
<symbol id="icon-toggle-down" viewBox="0 0 32 32">
<path d="M16 22.003l-10-10 1.4-1.4 8.6 8.6 8.6-8.6 1.4 1.4-10 10z"></path>
</symbol>
</defs>
</svg>
